<svg width="36" height="35" viewBox="0 0 36 35" fill="none" xmlns="http://www.w3.org/2000/svg">
<path d="M17.5044 0C7.83462 0 0 7.83266 0 17.5C0 27.1673 7.83462 35 17.5044 35C27.1741 35 35.0088 27.1673 35.0088 17.5C35.0088 7.83266 27.1741 0 17.5044 0ZM17.5044 6.77419C20.9347 6.77419 23.7156 9.55444 23.7156 12.9839C23.7156 16.4133 20.9347 19.1935 17.5044 19.1935C14.0741 19.1935 11.2931 16.4133 11.2931 12.9839C11.2931 9.55444 14.0741 6.77419 17.5044 6.77419ZM17.5044 31.0484C13.3612 31.0484 9.64858 29.1714 7.16409 26.2359C8.49103 23.7379 11.0885 22.0161 14.1164 22.0161C14.2858 22.0161 14.4552 22.0444 14.6176 22.0938C15.5351 22.3901 16.4951 22.5806 17.5044 22.5806C18.5137 22.5806 19.4807 22.3901 20.3912 22.0938C20.5535 22.0444 20.7229 22.0161 20.8923 22.0161C23.9203 22.0161 26.5177 23.7379 27.8447 26.2359C25.3602 29.1714 21.6476 31.0484 17.5044 31.0484Z" fill="#643FDB"/>
</svg>
