<svg width="36" height="35" viewBox="0 0 36 35" fill="none" xmlns="http://www.w3.org/2000/svg">
<path d="M35.5 17.5C35.5 27.1671 27.6643 35 18 35C8.3357 35 0.5 27.1671 0.5 17.5C0.5 7.83852 8.3357 0 18 0C27.6643 0 35.5 7.83852 35.5 17.5ZM18.4696 5.78629C14.6241 5.78629 12.1714 7.40624 10.2454 10.2853C9.99587 10.6583 10.0793 11.1614 10.437 11.4326L12.8855 13.2891C13.2528 13.5677 13.7761 13.5014 14.0614 13.1394C15.322 11.5405 16.1864 10.6134 18.105 10.6134C19.5466 10.6134 21.3297 11.5412 21.3297 12.9391C21.3297 13.9958 20.4573 14.5385 19.0339 15.3366C17.374 16.2671 15.1774 17.4253 15.1774 20.3226V20.6048C15.1774 21.0725 15.5566 21.4516 16.0242 21.4516H19.9758C20.4434 21.4516 20.8226 21.0725 20.8226 20.6048V20.5108C20.8226 18.5024 26.6926 18.4187 26.6926 12.9839C26.6926 8.89099 22.447 5.78629 18.4696 5.78629ZM18 23.2863C16.2101 23.2863 14.754 24.7424 14.754 26.5323C14.754 28.3221 16.2101 29.7782 18 29.7782C19.7899 29.7782 21.246 28.3221 21.246 26.5323C21.246 24.7424 19.7899 23.2863 18 23.2863Z" fill="#2B2B44"/>
</svg>
