<svg width="42" height="37" viewBox="0 0 42 37" fill="none" xmlns="http://www.w3.org/2000/svg">
<path d="M41.4518 12.8234L30.9516 22.6504C29.8448 23.6864 28 22.9183 28 21.3895V16.1891C17.4581 16.2592 13.0108 18.7266 15.9852 28.572C16.312 29.6541 15.0485 30.4919 14.1618 29.8244C11.3205 27.6853 8.75 23.5939 8.75 19.464C8.75 9.06226 17.3249 6.99814 28 6.93946V1.73526C28 0.205106 29.846 -0.560476 30.9516 0.474368L41.4518 10.3016C42.1824 10.9855 42.183 12.139 41.4518 12.8234ZM28 27.3979V32.375H4.66667V9.25001H8.37929C8.49712 9.24994 8.61372 9.22626 8.72208 9.1804C8.83045 9.13453 8.92834 9.06744 9.00988 8.98314C10.1002 7.8581 11.3605 6.96765 12.7296 6.26046C13.5412 5.84124 13.2405 4.62501 12.3253 4.62501H3.5C1.56698 4.62501 0 6.178 0 8.09376V33.5312C0 35.447 1.56698 37 3.5 37H29.1667C31.0997 37 32.6667 35.447 32.6667 33.5312V27.1136C32.6667 26.5147 32.069 26.0971 31.4992 26.2969C30.7004 26.5769 29.8449 26.6606 29.0062 26.5409C28.4761 26.4653 28 26.8671 28 27.3979Z" fill="#8A93A6"/>
</svg>
