<svg width="806" height="728" viewBox="0 0 806 728" fill="none" xmlns="http://www.w3.org/2000/svg">
<path fill-rule="evenodd" clip-rule="evenodd" d="M694.532 -327L620.221 -283.042C545.909 -239.083 347.975 -200.917 217.929 -113C87.8837 -25.0833 25.7269 112.583 25.7269 200.5C25.7269 288.417 50.8008 367.583 32.2229 455.5C13.645 543.417 -15.9234 637 10.4969 693.5L25.7269 728L806 728V684.042C806 640.083 806 552.167 806 464.25C806 376.333 806 288.417 806 200.5C806 112.583 806 24.6667 806 -63.25C806 -151.167 806 -239.083 806 -283.042V-327L694.532 -327Z" fill="#EBE8F2"/>
</svg>
